<mxfile host="app.diagrams.net" modified="2022-05-10T18:54:44.269Z" agent="5.0 (Windows NT 10.0; Win64; x64) AppleWebKit/537.36 (KHTML, like Gecko) Chrome/101.0.4951.54 Safari/537.36" etag="lNm-m4kSbddrOznuoe9V" version="18.0.2" type="github">
  <diagram id="_6jzjjmLw6SJjfZyqRxt" name="Page-1">
    <mxGraphModel dx="1422" dy="754" grid="1" gridSize="10" guides="1" tooltips="1" connect="1" arrows="1" fold="1" page="1" pageScale="1" pageWidth="827" pageHeight="1169" math="0" shadow="0">
      <root>
        <mxCell id="0" />
        <mxCell id="1" parent="0" />
        <mxCell id="8yKd8Ax_CTTsXosJWTvP-4" value="" style="rounded=1;whiteSpace=wrap;html=1;fillColor=#fff2cc;strokeColor=#d6b656;" vertex="1" parent="1">
          <mxGeometry x="120" y="10" width="600" height="390" as="geometry" />
        </mxCell>
        <mxCell id="8yKd8Ax_CTTsXosJWTvP-5" value="SCM" style="text;strokeColor=none;fillColor=none;html=1;fontSize=24;fontStyle=1;verticalAlign=middle;align=center;" vertex="1" parent="1">
          <mxGeometry x="130" y="30" width="100" height="40" as="geometry" />
        </mxCell>
        <mxCell id="8yKd8Ax_CTTsXosJWTvP-8" value="" style="rounded=0;whiteSpace=wrap;html=1;fillColor=#647687;strokeColor=#314354;fontColor=#ffffff;" vertex="1" parent="1">
          <mxGeometry x="205" y="70" width="430" height="280" as="geometry" />
        </mxCell>
        <mxCell id="8yKd8Ax_CTTsXosJWTvP-9" value="GitHub" style="text;strokeColor=none;fillColor=none;html=1;fontSize=24;fontStyle=1;verticalAlign=middle;align=center;" vertex="1" parent="1">
          <mxGeometry x="230" y="80" width="100" height="40" as="geometry" />
        </mxCell>
        <mxCell id="8yKd8Ax_CTTsXosJWTvP-10" value="Kod programu" style="rounded=0;whiteSpace=wrap;html=1;fillColor=#e3c800;strokeColor=#B09500;fontColor=#000000;" vertex="1" parent="1">
          <mxGeometry x="240" y="150" width="160" height="100" as="geometry" />
        </mxCell>
        <mxCell id="8yKd8Ax_CTTsXosJWTvP-11" value="Jenkinsfile" style="rounded=0;whiteSpace=wrap;html=1;fillColor=#e51400;fontColor=#ffffff;strokeColor=#B20000;" vertex="1" parent="1">
          <mxGeometry x="430" y="150" width="170" height="100" as="geometry" />
        </mxCell>
        <mxCell id="8yKd8Ax_CTTsXosJWTvP-12" value="Pobranie konfiguracji pipeline" style="rounded=0;whiteSpace=wrap;html=1;" vertex="1" parent="1">
          <mxGeometry x="320" y="480" width="230" height="120" as="geometry" />
        </mxCell>
        <mxCell id="8yKd8Ax_CTTsXosJWTvP-13" value="" style="rounded=1;whiteSpace=wrap;html=1;fillColor=#ffe6cc;strokeColor=#d79b00;" vertex="1" parent="1">
          <mxGeometry x="120" y="440" width="600" height="720" as="geometry" />
        </mxCell>
        <mxCell id="8yKd8Ax_CTTsXosJWTvP-14" value="Jenkins" style="text;strokeColor=none;fillColor=none;html=1;fontSize=24;fontStyle=1;verticalAlign=middle;align=center;" vertex="1" parent="1">
          <mxGeometry x="140" y="470" width="100" height="40" as="geometry" />
        </mxCell>
        <mxCell id="8yKd8Ax_CTTsXosJWTvP-15" value="Pobranie konfiguracji" style="rounded=0;whiteSpace=wrap;html=1;fillColor=#e51400;fontColor=#ffffff;strokeColor=#B20000;" vertex="1" parent="1">
          <mxGeometry x="430" y="470" width="170" height="90" as="geometry" />
        </mxCell>
        <mxCell id="8yKd8Ax_CTTsXosJWTvP-17" value="Pobranie zawartości repozytorium" style="rounded=0;whiteSpace=wrap;html=1;fillColor=#ffcd28;strokeColor=#d79b00;gradientColor=#ffa500;" vertex="1" parent="1">
          <mxGeometry x="345" y="610" width="180" height="90" as="geometry" />
        </mxCell>
        <mxCell id="8yKd8Ax_CTTsXosJWTvP-19" value="" style="endArrow=classic;html=1;rounded=0;exitX=0.5;exitY=1;exitDx=0;exitDy=0;entryX=0.75;entryY=0;entryDx=0;entryDy=0;" edge="1" parent="1" source="8yKd8Ax_CTTsXosJWTvP-15" target="8yKd8Ax_CTTsXosJWTvP-17">
          <mxGeometry width="50" height="50" relative="1" as="geometry">
            <mxPoint x="390" y="500" as="sourcePoint" />
            <mxPoint x="440" y="450" as="targetPoint" />
          </mxGeometry>
        </mxCell>
        <mxCell id="8yKd8Ax_CTTsXosJWTvP-20" value="" style="endArrow=classic;html=1;rounded=0;exitX=0.5;exitY=1;exitDx=0;exitDy=0;entryX=0.25;entryY=0;entryDx=0;entryDy=0;" edge="1" parent="1" source="8yKd8Ax_CTTsXosJWTvP-10" target="8yKd8Ax_CTTsXosJWTvP-17">
          <mxGeometry width="50" height="50" relative="1" as="geometry">
            <mxPoint x="390" y="500" as="sourcePoint" />
            <mxPoint x="440" y="450" as="targetPoint" />
          </mxGeometry>
        </mxCell>
        <mxCell id="8yKd8Ax_CTTsXosJWTvP-21" value="" style="endArrow=classic;html=1;rounded=0;exitX=0.5;exitY=1;exitDx=0;exitDy=0;" edge="1" parent="1" source="8yKd8Ax_CTTsXosJWTvP-11" target="8yKd8Ax_CTTsXosJWTvP-15">
          <mxGeometry width="50" height="50" relative="1" as="geometry">
            <mxPoint x="390" y="500" as="sourcePoint" />
            <mxPoint x="440" y="450" as="targetPoint" />
          </mxGeometry>
        </mxCell>
        <mxCell id="8yKd8Ax_CTTsXosJWTvP-22" value="Build" style="rounded=0;whiteSpace=wrap;html=1;fillColor=#ffcd28;strokeColor=#d79b00;gradientColor=#ffa500;" vertex="1" parent="1">
          <mxGeometry x="345" y="740" width="180" height="90" as="geometry" />
        </mxCell>
        <mxCell id="8yKd8Ax_CTTsXosJWTvP-23" value="Testy" style="rounded=0;whiteSpace=wrap;html=1;fillColor=#b0e3e6;strokeColor=#0e8088;" vertex="1" parent="1">
          <mxGeometry x="500" y="890" width="180" height="90" as="geometry" />
        </mxCell>
        <mxCell id="8yKd8Ax_CTTsXosJWTvP-24" value="Wdrożenie" style="rounded=0;whiteSpace=wrap;html=1;fillColor=#e3c800;strokeColor=#B09500;fontColor=#000000;" vertex="1" parent="1">
          <mxGeometry x="190" y="890" width="180" height="90" as="geometry" />
        </mxCell>
        <mxCell id="8yKd8Ax_CTTsXosJWTvP-25" value="Publikacja" style="rounded=0;whiteSpace=wrap;html=1;fillColor=#e3c800;strokeColor=#B09500;fontColor=#000000;" vertex="1" parent="1">
          <mxGeometry x="345" y="1050" width="180" height="90" as="geometry" />
        </mxCell>
        <mxCell id="8yKd8Ax_CTTsXosJWTvP-26" value="" style="endArrow=classic;html=1;rounded=0;exitX=0.5;exitY=1;exitDx=0;exitDy=0;entryX=0.5;entryY=0;entryDx=0;entryDy=0;" edge="1" parent="1" source="8yKd8Ax_CTTsXosJWTvP-17" target="8yKd8Ax_CTTsXosJWTvP-22">
          <mxGeometry width="50" height="50" relative="1" as="geometry">
            <mxPoint x="390" y="800" as="sourcePoint" />
            <mxPoint x="440" y="750" as="targetPoint" />
          </mxGeometry>
        </mxCell>
        <mxCell id="8yKd8Ax_CTTsXosJWTvP-28" value="" style="endArrow=classic;html=1;rounded=0;exitX=0.25;exitY=1;exitDx=0;exitDy=0;entryX=0.5;entryY=0;entryDx=0;entryDy=0;" edge="1" parent="1" source="8yKd8Ax_CTTsXosJWTvP-22" target="8yKd8Ax_CTTsXosJWTvP-24">
          <mxGeometry width="50" height="50" relative="1" as="geometry">
            <mxPoint x="390" y="900" as="sourcePoint" />
            <mxPoint x="440" y="850" as="targetPoint" />
          </mxGeometry>
        </mxCell>
        <mxCell id="8yKd8Ax_CTTsXosJWTvP-29" value="" style="endArrow=classic;html=1;rounded=0;exitX=0.75;exitY=1;exitDx=0;exitDy=0;entryX=0.5;entryY=0;entryDx=0;entryDy=0;" edge="1" parent="1" source="8yKd8Ax_CTTsXosJWTvP-22" target="8yKd8Ax_CTTsXosJWTvP-23">
          <mxGeometry width="50" height="50" relative="1" as="geometry">
            <mxPoint x="390" y="900" as="sourcePoint" />
            <mxPoint x="440" y="850" as="targetPoint" />
          </mxGeometry>
        </mxCell>
        <mxCell id="8yKd8Ax_CTTsXosJWTvP-30" value="" style="endArrow=classic;html=1;rounded=0;exitX=0.5;exitY=1;exitDx=0;exitDy=0;" edge="1" parent="1" source="8yKd8Ax_CTTsXosJWTvP-24">
          <mxGeometry width="50" height="50" relative="1" as="geometry">
            <mxPoint x="390" y="1100" as="sourcePoint" />
            <mxPoint x="440" y="1050" as="targetPoint" />
          </mxGeometry>
        </mxCell>
        <mxCell id="8yKd8Ax_CTTsXosJWTvP-32" value="Testy pozytywne" style="endArrow=open;endSize=12;dashed=1;html=1;rounded=0;exitX=0;exitY=0.5;exitDx=0;exitDy=0;entryX=1;entryY=0.5;entryDx=0;entryDy=0;" edge="1" parent="1" source="8yKd8Ax_CTTsXosJWTvP-23" target="8yKd8Ax_CTTsXosJWTvP-24">
          <mxGeometry width="160" relative="1" as="geometry">
            <mxPoint x="330" y="1070" as="sourcePoint" />
            <mxPoint x="490" y="1070" as="targetPoint" />
          </mxGeometry>
        </mxCell>
        <mxCell id="8yKd8Ax_CTTsXosJWTvP-33" value="npm registry" style="shape=cylinder3;whiteSpace=wrap;html=1;boundedLbl=1;backgroundOutline=1;size=15;fillColor=#e51400;fontColor=#ffffff;strokeColor=#B20000;" vertex="1" parent="1">
          <mxGeometry x="170" y="1200" width="160" height="270" as="geometry" />
        </mxCell>
        <mxCell id="8yKd8Ax_CTTsXosJWTvP-34" value="" style="endArrow=classic;html=1;rounded=0;entryX=1;entryY=0.5;entryDx=0;entryDy=0;entryPerimeter=0;" edge="1" parent="1" source="8yKd8Ax_CTTsXosJWTvP-25" target="8yKd8Ax_CTTsXosJWTvP-33">
          <mxGeometry width="50" height="50" relative="1" as="geometry">
            <mxPoint x="390" y="1300" as="sourcePoint" />
            <mxPoint x="440" y="1250" as="targetPoint" />
          </mxGeometry>
        </mxCell>
      </root>
    </mxGraphModel>
  </diagram>
</mxfile>
